<svg width="25" height="24" viewBox="0 0 25 24" fill="none" xmlns="http://www.w3.org/2000/svg">
<path fill-rule="evenodd" clip-rule="evenodd" d="M12.1003 0C8.84134 0 8.43334 0.014 7.15334 0.072C2.79534 0.272 0.373342 2.69 0.173342 7.052C0.114342 8.333 0.100342 8.741 0.100342 12C0.100342 15.259 0.114342 15.668 0.172342 16.948C0.372342 21.306 2.79034 23.728 7.15234 23.928C8.43334 23.986 8.84134 24 12.1003 24C15.3593 24 15.7683 23.986 17.0483 23.928C21.4023 23.728 23.8303 21.31 24.0273 16.948C24.0863 15.668 24.1003 15.259 24.1003 12C24.1003 8.741 24.0863 8.333 24.0283 7.053C23.8323 2.699 21.4113 0.273 17.0493 0.073C15.7683 0.014 15.3593 0 12.1003 0ZM12.1003 2.163C15.3043 2.163 15.6843 2.175 16.9503 2.233C20.2023 2.381 21.7213 3.924 21.8693 7.152C21.9273 8.417 21.9383 8.797 21.9383 12.001C21.9383 15.206 21.9263 15.585 21.8693 16.85C21.7203 20.075 20.2053 21.621 16.9503 21.769C15.6843 21.827 15.3063 21.839 12.1003 21.839C8.89634 21.839 8.51634 21.827 7.25134 21.769C3.99134 21.62 2.48034 20.07 2.33234 16.849C2.27434 15.584 2.26234 15.205 2.26234 12C2.26234 8.796 2.27534 8.417 2.33234 7.151C2.48134 3.924 3.99634 2.38 7.25134 2.232C8.51734 2.175 8.89634 2.163 12.1003 2.163ZM5.93834 12C5.93834 8.597 8.69734 5.838 12.1003 5.838C15.5033 5.838 18.2623 8.597 18.2623 12C18.2623 15.404 15.5033 18.163 12.1003 18.163C8.69734 18.163 5.93834 15.403 5.93834 12ZM12.1003 16C9.89134 16 8.10034 14.21 8.10034 12C8.10034 9.791 9.89134 8 12.1003 8C14.3093 8 16.1003 9.791 16.1003 12C16.1003 14.21 14.3093 16 12.1003 16ZM17.0653 5.595C17.0653 4.8 17.7103 4.155 18.5063 4.155C19.3013 4.155 19.9453 4.8 19.9453 5.595C19.9453 6.39 19.3013 7.035 18.5063 7.035C17.7103 7.035 17.0653 6.39 17.0653 5.595Z" fill="#FEFCF7"/>
</svg>
